<?xml version="1.0" encoding="utf-8"?>
<!-- Svg Vector Icons : http://www.onlinewebfonts.com/icon -->
<!DOCTYPE svg PUBLIC "-//W3C//DTD SVG 1.1//EN" "http://www.w3.org/Graphics/SVG/1.1/DTD/svg11.dtd">
<svg version="1.1" xmlns="http://www.w3.org/2000/svg" xmlns:xlink="http://www.w3.org/1999/xlink" x="0px" y="0px" viewBox="0 0 1000 1000" enable-background="new 0 0 1000 1000" xml:space="preserve">
<metadata> Svg Vector Icons : http://www.onlinewebfonts.com/icon </metadata>
<g><g id="Anonym__x2F__Guy_Fawkes"><path  fill="#FFFFFF" d="M588.8,128.4c9.2,6.7,30.1,6,42-8.3c6.8-8.1,65.3-69.5,147.4-69.5c105.5,0,144.7,35.3,144.7,35.3C885.4,18.3,804.3,10,780.8,10c-114.5,0-179.9,54.6-196.9,77.8C566.8,111,580.4,122.3,588.8,128.4z M913.4,316.2c-14.7,0-15.3,24-15.3,30.6c0,43.1-24.3,85.1-45.9,107.2c-62.1,63.7-163.9,7.7-163.9,7.7c-17.2-6.9,1.5,10.3,1.5,10.3c9.8,10.1,37.8,41.3,92.7,48.3c-2.5,2.7-68.3,71.5-68.3,71.5h-61.2L591.7,500c-16.3,21.5-30.6,30.6-61.3,30.6c-16.8,0-35.9-2.9-49.3-17.7c-12.6-13.9-12-32.3-12-43.5c-0.1-45.9,0-162.8,0-183.7V233c0-26.8-30.1-51.5-30.1-51.5c-35.7-24.5-61,30.7-61,30.7l-0.4,0.3c-29.4-10.7-60.4-17.2-93.1-17.2c-40,0-86.8,4.4-121.7,19.9c0-8.7,0-21.4,0-21.4c0-219.5,236.7-75.5,270.1-63.6c31.1,11.1,24.8-24.7,19.4-30.7C377.8,17.2,251,10,251,10C77.6,10,71.3,179.8,71.3,255v159.3c0,194.2,247.7,528.5,401.7,553.9c-0.7,0.4,16.4,4.4,23.2,9.4c0.3,0.2,0.7,0,1,0.2c8.9,7.4,20,12.3,32.5,12.3c12.2,0,22.9-4.7,31.6-11.7c0,0,10.8-6.3,26.7-11.4c18.2-4.8,49.3-23.7,68.7-39.2c78.5-63,157.7-160.4,212.8-300.9c0,0,7.4-33-2.1-35c-8.4-1.7-14,0.1-36.8,41.1c-87,156.4-207.7,262.3-269.4,265.2V775.6c39.1-6,108.6-36.9,155.6-79.6c30.6-27.8-24.3-21.5-33.1-17.9c-37.5,15.1-45.1,36.3-153.1,36.3c-103,0-164.5-43.4-183.7-61.2c56.9,0,122.5,0,122.5,0l61.2-61.3l61.3,61.3c0,0,72,0,122.5,0l111.4-132.2c93.6-8.3,103.2-116.7,103.2-128.1c0-23.7,0-23.2,0-45.9C928.7,339.6,928.5,316.2,913.4,316.2z M348.1,720.2c82.2,51.7,124.8,51.5,151.7,55.4v122.5C354.7,861.1,346.5,756.1,348.1,720.2z M396.8,398.9C373.9,500,259.6,500,259.6,500c-67.8,0-96.7-34.8-96.7-126.6V237.1c34.9,15.5,81.7,28.7,121.7,28.7c35.4,0,69-7.3,100.5-19.7c0.1,0,0.2,0,0.2,0c11.6,0,18,9.1,18,9.1S422.2,286.3,396.8,398.9z M614.9,230.5c40.7,21.9,86,35.3,134.3,35.3c48.4,0,93.6-13.4,134.4-35.3c-40.8-21.9-86-35.3-134.4-35.3C700.9,195.3,655.7,208.7,614.9,230.5z"/></g><g></g><g></g><g></g><g></g><g></g><g></g><g></g><g></g><g></g><g></g><g></g><g></g><g></g><g></g><g></g></g>
</svg>