<?xml version="1.0" encoding="utf-8"?>
<!-- Svg Vector Icons : http://www.onlinewebfonts.com/icon -->
<!DOCTYPE svg PUBLIC "-//W3C//DTD SVG 1.1//EN" "http://www.w3.org/Graphics/SVG/1.1/DTD/svg11.dtd">
<svg version="1.1" xmlns="http://www.w3.org/2000/svg" xmlns:xlink="http://www.w3.org/1999/xlink" x="0px" y="0px" viewBox="0 0 1000 1000" enable-background="new 0 0 1000 1000" xml:space="preserve">
<metadata> Svg Vector Icons : http://www.onlinewebfonts.com/icon </metadata>
<g><g transform="translate(0.000000,512.000000) scale(0.100000,-0.100000)"><path fill="#FFFFFF"  d="M4528.1,5001.4C3397,4892.2,2340.7,4393.7,1529.7,3582.8C751.3,2804.4,287.4,1855.4,124.4,718.6c-32.6-226.2-32.6-981.6,0-1207.8c163-1136.9,628.8-2085.8,1405.3-2864.2c776.4-776.4,1729.2-1244.2,2864.2-1405.3c226.2-32.6,981.6-32.6,1207.8,0c939.4,134.2,1779.1,490.8,2473.1,1052.5c233.9,189.8,575.1,531.1,761.1,763c533,665.3,893.4,1501.1,1019.9,2367.7c65.2,444.8,61.3,636.5-32.6,1342c-72.9,542.5-97.8,676.7-157.2,860.8c-241.6,749.6-640.3,1399.5-1198.2,1957.4C7438.3,4614.2,5977.5,5139.5,4528.1,5001.4z M5185.7,2756.5l3.8-379.6l1019.9-3.8l1019.9-5.7l157.2-814.8c84.4-448.6,214.7-1123.4,285.7-1499.2l132.3-684.4l105.4-5.8l107.4-5.7l-5.8-176.4c-7.7-301-93.9-498.5-299.1-692.1c-176.4-166.8-391.1-253.1-634.6-253.1c-268.4,0-481.2,88.2-671,278c-186,186-278,419.8-278,703.6V-633h120.8h118.9l247.3,1261.5c134.2,692.1,251.1,1282.6,255,1313.2l11.5,51.8H6035h-845.4V-268.8V-2531h373.8h373.8v-191.7v-191.7h-939.4h-939.4v191.7v191.7h373.8h373.8v2262.2v2262.2h-843.5c-663.3,0-843.5-5.7-841.6-23c0-13.4,139.9-602,310.6-1309.4l310.6-1284.5l63.3-5.8l61.3-5.8v-149.5c0-279.9-93.9-517.6-278-701.7c-189.8-189.8-404.5-278-671-278c-416,0-786,278-901.1,672.9c-15.3,59.4-32.6,186-34.5,278l-3.8,170.6l78.6,5.7l76.7,5.8l255,1192.5c140,655.7,285.6,1332.4,324,1505l67.1,310.6h1014.2h1012.2v370c0,205.1,5.7,377.7,13.4,385.3s92,9.6,187.9,7.7l172.5-5.7L5185.7,2756.5z"/><path fill="#FFFFFF"  d="M2902.4,1169.1c-9.6-24.9-377.7-1773.4-377.7-1794.5c0-3.8,186-7.7,412.2-7.7c226.2,0,412.2,7.7,412.2,15.3c0,17.3-417.9,1761.9-429.4,1796.4C2915.8,1190.2,2908.1,1184.4,2902.4,1169.1z"/><path fill="#FFFFFF"  d="M6916.9,218.2c-86.3-460.1-153.4-839.7-149.5-843.6c3.8-5.7,153.4-5.7,331.7-3.8l325.9,5.8L7260,214.4c-90.1,462-166.8,839.7-174.5,839.7C7079.8,1054.1,7005.1,678.3,6916.9,218.2z"/></g></g>
</svg>